<?xml version="1.0" encoding="utf-8"?>
<!-- Generator: Adobe Illustrator 24.3.0, SVG Export Plug-In . SVG Version: 6.00 Build 0)  -->
<svg version="1.1" id="Fitness_icons" xmlns="http://www.w3.org/2000/svg" xmlns:xlink="http://www.w3.org/1999/xlink" x="0px"
	 y="0px" viewBox="0 0 103.3 116" style="enable-background:new 0 0 103.3 116;" xml:space="preserve">
<style type="text/css">
	.st0{fill:#F14C44;}
</style>
<path class="st0" d="M75.5,27c-4,0-7.2,0.5-9.8,1.2c5.9-4.8,8.5-8.7,7.9-12c-0.8-4.3-1.5-8.4,0-13.6c0.2-0.6,0.1-1.3-0.4-1.8
	S72.4,0,71.7,0c-5.2,0.3-18.2,6.9-22,24.9C44.8,14,37.4,11.5,37,11.4c-1-0.3-2.2,0.3-2.5,1.3c-0.3,1,0.2,2.2,1.3,2.5
	c0.4,0.1,8.8,3.1,12.6,18c-0.7-0.3-1.4-0.8-2.3-1.3c-3.5-2.1-8.4-5-18.3-5C16.6,27,0,39.8,0,67.2C0,91.9,20.4,116,35.7,116
	c8.1,0,14-1.7,16-2.4c2,0.7,7.8,2.4,16,2.4c15.2,0,35.7-24.1,35.7-48.8C103.3,39.8,86.7,27,75.5,27z M61.1,10.5
	c2.8-3,5.9-4.8,8.1-5.8c-0.7,4.5,0,8.3,0.6,12c0.4,2.5-5.9,9-17.1,15.5C53.4,21.1,57.6,14.3,61.1,10.5z M67.6,112
	c-9.1,0-15.1-2.4-15.2-2.4c-0.1,0-0.2,0-0.2-0.1c0,0-0.1,0-0.1,0c-0.1,0-0.2,0-0.3,0c0,0-0.1,0-0.1,0c-0.1,0-0.2,0-0.3,0
	c0,0-0.1,0-0.1,0c-0.1,0-0.2,0-0.3,0.1c0,0-0.1,0-0.1,0c-0.1,0-6.1,2.4-15.2,2.4c-6,0-14-5.4-20.4-13.7C8.1,89,4,77.7,4,67.2
	C4,40.1,20.3,31,27.7,31c8.9,0,13,2.4,16.3,4.4c1.2,0.7,2.4,1.4,3.7,1.9L42,40.6c-1,0.5-1.3,1.8-0.8,2.7c0.4,0.7,1,1,1.7,1
	c0.3,0,0.7-0.1,1-0.3l13-7.3c0.8-0.4,1.6-0.9,2.3-1.3c0.1-0.1,0.2-0.1,0.3-0.2l2-1.2c3-1.6,7-3.1,14-3.1c7.4,0,23.7,9.1,23.7,36.2
	c0,10.4-4.1,21.8-11.3,31.1C81.6,106.6,73.6,112,67.6,112z"/>
</svg>
