<?xml version="1.0" encoding="utf-8"?>
<!-- Generator: Adobe Illustrator 24.3.0, SVG Export Plug-In . SVG Version: 6.00 Build 0)  -->
<svg version="1.1" id="Fitness_icons" xmlns="http://www.w3.org/2000/svg" xmlns:xlink="http://www.w3.org/1999/xlink" x="0px"
	 y="0px" viewBox="0 0 99.4 100" style="enable-background:new 0 0 99.4 100;" xml:space="preserve">
<style type="text/css">
	.st0{fill:#F14C44;}
</style>
<g>
	<path class="st0" d="M33.6,50.8h-1.7c-1.1,0-2-0.9-2-2v-1.7c0-1.1,0.9-2,2-2h1.7c1.1,0,2,0.9,2,2v1.7
		C35.6,49.9,34.7,50.8,33.6,50.8z"/>
	<path class="st0" d="M33.6,67.6h-1.7c-1.1,0-2-0.9-2-2v-1.7c0-1.1,0.9-2,2-2h1.7c1.1,0,2,0.9,2,2v1.7
		C35.6,66.7,34.7,67.6,33.6,67.6z"/>
	<path class="st0" d="M50.3,67.6h-1.7c-1.1,0-2-0.9-2-2v-1.7c0-1.1,0.9-2,2-2h1.7c1.1,0,2,0.9,2,2v1.7
		C52.3,66.7,51.4,67.6,50.3,67.6z"/>
	<path class="st0" d="M67,67.6h-1.7c-1.1,0-2-0.9-2-2v-1.7c0-1.1,0.9-2,2-2H67c1.1,0,2,0.9,2,2v1.7C69,66.7,68.1,67.6,67,67.6z"/>
	<path class="st0" d="M83.7,67.6H82c-1.1,0-2-0.9-2-2v-1.7c0-1.1,0.9-2,2-2h1.7c1.1,0,2,0.9,2,2v1.7C85.7,66.7,84.8,67.6,83.7,67.6z
		"/>
	<path class="st0" d="M33.6,84.5h-1.7c-1.1,0-2-0.9-2-2v-1.7c0-1.1,0.9-2,2-2h1.7c1.1,0,2,0.9,2,2v1.7
		C35.6,83.6,34.7,84.5,33.6,84.5z"/>
	<path class="st0" d="M16.7,84.5H15c-1.1,0-2-0.9-2-2v-1.7c0-1.1,0.9-2,2-2h1.7c1.1,0,2,0.9,2,2v1.7C18.7,83.6,17.8,84.5,16.7,84.5z
		"/>
	<path class="st0" d="M16.7,67.6H15c-1.1,0-2-0.9-2-2v-1.7c0-1.1,0.9-2,2-2h1.7c1.1,0,2,0.9,2,2v1.7C18.7,66.7,17.8,67.6,16.7,67.6z
		"/>
	<path class="st0" d="M50.3,84.5h-1.7c-1.1,0-2-0.9-2-2v-1.7c0-1.1,0.9-2,2-2h1.7c1.1,0,2,0.9,2,2v1.7
		C52.3,83.6,51.4,84.5,50.3,84.5z"/>
	<path class="st0" d="M67,84.5h-1.7c-1.1,0-2-0.9-2-2v-1.7c0-1.1,0.9-2,2-2H67c1.1,0,2,0.9,2,2v1.7C69,83.6,68.1,84.5,67,84.5z"/>
	<path class="st0" d="M50.3,50.8h-1.7c-1.1,0-2-0.9-2-2v-1.7c0-1.1,0.9-2,2-2h1.7c1.1,0,2,0.9,2,2v1.7
		C52.3,49.9,51.4,50.8,50.3,50.8z"/>
	<path class="st0" d="M67,50.8h-1.7c-1.1,0-2-0.9-2-2v-1.7c0-1.1,0.9-2,2-2H67c1.1,0,2,0.9,2,2v1.7C69,49.9,68.1,50.8,67,50.8z"/>
	<path class="st0" d="M83.8,50.8h-1.7c-1.1,0-2-0.9-2-2v-1.7c0-1.1,0.9-2,2-2h1.7c1.1,0,2,0.9,2,2v1.7
		C85.8,49.9,84.9,50.8,83.8,50.8z"/>
	<path class="st0" d="M90.6,100H8.8C3.9,100,0,96.1,0,91.2V16.8C0,11.9,3.9,8,8.8,8h11.6c1.1,0,2,0.9,2,2s-0.9,2-2,2H8.8
		C6.1,12,4,14.1,4,16.8v74.5C4,93.9,6.1,96,8.8,96h81.8c2.6,0,4.8-2.1,4.8-4.8V16.8c0-2.6-2.1-4.8-4.8-4.8h-8.2c-1.1,0-2-0.9-2-2
		s0.9-2,2-2h8.2c4.8,0,8.8,3.9,8.8,8.8v74.5C99.4,96.1,95.5,100,90.6,100z"/>
	<path class="st0" d="M72.5,12h-42c-1.1,0-2-0.9-2-2s0.9-2,2-2h42c1.1,0,2,0.9,2,2S73.6,12,72.5,12z"/>
	<path class="st0" d="M97.4,32.8H2c-1.1,0-2-0.9-2-2s0.9-2,2-2h95.4c1.1,0,2,0.9,2,2S98.5,32.8,97.4,32.8z"/>
	<path class="st0" d="M21.4,20c-1.1,0-2-0.9-2-2V2c0-1.1,0.9-2,2-2s2,0.9,2,2v16C23.4,19.1,22.5,20,21.4,20z"/>
	<path class="st0" d="M72.5,20c-1.1,0-2-0.9-2-2V2c0-1.1,0.9-2,2-2s2,0.9,2,2v16C74.5,19.1,73.6,20,72.5,20z"/>
</g>
</svg>
