<?xml version="1.0" encoding="utf-8"?>
<!-- Generator: Adobe Illustrator 24.3.0, SVG Export Plug-In . SVG Version: 6.00 Build 0)  -->
<svg version="1.1" id="Layer_1" xmlns="http://www.w3.org/2000/svg" xmlns:xlink="http://www.w3.org/1999/xlink" x="0px" y="0px"
	 viewBox="0 0 98.9 12.7" style="enable-background:new 0 0 98.9 12.7;" xml:space="preserve">
<style type="text/css">
	.st0{fill:#000101;}
</style>
<g>
	<path class="st0" d="M7.8,5.4h-6V1.8h6C7.9,1.8,8,1.7,8,1.6V0.3c0-0.1-0.1-0.2-0.3-0.2H0.2C0.1,0.1,0,0.2,0,0.3V12
		c0,0.4,0.2,0.6,0.6,0.6h0.9c0.2,0,0.2-0.1,0.2-0.3V7.2h6C7.9,7.2,8,7.1,8,6.9V5.7C8,5.5,7.9,5.4,7.8,5.4z"/>
	<path class="st0" d="M17.2,0.1H16c-0.2,0-0.3,0.1-0.3,0.2v12c0,0.2,0.1,0.3,0.3,0.3h1.2c0.2,0,0.3-0.1,0.3-0.3v-12
		C17.5,0.2,17.4,0.1,17.2,0.1z"/>
	<path class="st0" d="M34.5,0.1h-9.3c-0.2,0-0.3,0.1-0.3,0.3v1.3c0,0.2,0.1,0.3,0.3,0.3h3.8V12c0,0.4,0.2,0.6,0.6,0.6h0.9
		c0.2,0,0.3-0.1,0.3-0.3V1.9h3.8c0.2,0,0.3-0.1,0.3-0.3V0.3C34.7,0.2,34.7,0.1,34.5,0.1z"/>
	<path class="st0" d="M44.7,0.1C44.6,0,44.6,0,44.5,0h-0.2c-0.1,0-0.1,0-0.2,0.1l-5.9,12.2c-0.1,0.2,0,0.3,0.2,0.3h1.4
		c0.1,0,0.2-0.1,0.3-0.2l0.9-2h6.8l0.9,2c0.1,0.1,0.1,0.2,0.3,0.2h1.4c0.2,0,0.2-0.1,0.1-0.3L44.7,0.1z M41.7,9l2.7-5.7L47.1,9H41.7
		z"/>
	<path class="st0" d="M64.7,10.9h-6.1l6.2-10.1l0.1-0.1V0.3c0-0.2-0.1-0.2-0.3-0.2h-8.5c-0.2,0-0.3,0.1-0.3,0.3v1.2
		c0,0.2,0.1,0.3,0.3,0.3h6l-6.2,10.1l-0.1,0.1v0.3c0,0.2,0.1,0.3,0.2,0.3h8.2c0.4,0,0.6-0.2,0.6-0.6v-0.9
		C65,10.9,64.9,10.9,64.7,10.9z"/>
	<path class="st0" d="M80.1,0.1h-7.6c-0.3,0-0.5,0.2-0.5,0.5v11.3c0,0.5,0.4,0.9,0.9,0.9h1.4c0.3,0,0.5-0.2,0.5-0.5v-4
		c0-0.3,0.2-0.5,0.5-0.5h4.3c0.3,0,0.5-0.2,0.5-0.5V5.7c0-0.3-0.2-0.5-0.5-0.5h-4.3c-0.3,0-0.5-0.2-0.5-0.5V3.1
		c0-0.3,0.2-0.5,0.5-0.5H80c0.3,0,0.5-0.2,0.5-0.5V0.5C80.5,0.3,80.3,0.1,80.1,0.1z"/>
	<path class="st0" d="M98.8,12.5l-5.7-6.4c-0.1-0.1-0.1-0.3,0-0.4l5-5.2c0.2-0.2,0-0.5-0.2-0.5H95c-0.1,0-0.2,0-0.2,0.1l-4.3,4.6
		C90.3,5,90,4.9,90,4.6V0.4c0-0.2-0.1-0.3-0.3-0.3h-2.2c-0.2,0-0.3,0.1-0.3,0.3v11.7c0,0.3,0.3,0.6,0.6,0.6h1.9
		c0.2,0,0.3-0.1,0.3-0.3V7.5c0-0.3,0.3-0.4,0.5-0.2l4.6,5.3c0.1,0.1,0.1,0.1,0.2,0.1h3.5C98.8,12.7,98.9,12.6,98.8,12.5z"/>
</g>
</svg>
