<?xml version="1.0" encoding="utf-8"?>
<!-- Generator: Adobe Illustrator 24.3.0, SVG Export Plug-In . SVG Version: 6.00 Build 0)  -->
<svg version="1.1" id="Layer_1" xmlns="http://www.w3.org/2000/svg" xmlns:xlink="http://www.w3.org/1999/xlink" x="0px" y="0px"
	 viewBox="0 0 185.6 129.4" style="enable-background:new 0 0 185.6 129.4;" xml:space="preserve">
<style type="text/css">
	.st0{fill:#F14C44;}
</style>
<g>
	<g>
		<path class="st0" d="M14.2,0l-1.5,0C5.7,0,0,5.7,0,12.8v0c0,7,5.7,12.8,12.8,12.8h1.5c7,0,12.8-5.7,12.8-12.8v0
			C27,5.7,21.3,0,14.2,0z"/>
	</g>
	<g>
		<path class="st0" d="M14.2,51.9h-1.5C5.7,51.9,0,57.6,0,64.7v0c0,7,5.7,12.8,12.8,12.8h1.5c7,0,12.8-5.7,12.8-12.8v0
			C27,57.6,21.3,51.9,14.2,51.9z"/>
	</g>
	<g>
		<path class="st0" d="M14.2,103.9h-1.1c-6.3,0-12,4.4-12.9,10.7c-1.3,8,4.9,14.8,12.6,14.8h1.1c6.3,0,12-4.4,12.9-10.7
			C28.1,110.7,22,103.9,14.2,103.9z"/>
	</g>
	<g>
		<polygon class="st0" points="91.6,8.2 42.7,8.2 42.7,8.2 42.7,16.3 42.7,16.3 91.6,16.3 91.6,16.3 91.6,8.2 		"/>
	</g>
	<g>
		<polygon class="st0" points="155.2,8.2 103.3,8.2 103.3,8.2 103.3,16.3 103.3,16.3 155.2,16.3 155.2,16.3 155.2,8.2 		"/>
	</g>
	<g>
		<polygon class="st0" points="166,8.2 166,16.3 166,16.3 185.6,16.3 185.6,16.3 185.6,8.2 185.6,8.2 166,8.2 		"/>
	</g>
	<g>
		<polygon class="st0" points="136.7,120.9 185.6,120.9 185.6,120.9 185.6,112.8 185.6,112.8 136.7,112.8 136.7,112.8 136.7,120.9 
					"/>
	</g>
	<g>
		<polygon class="st0" points="73.2,120.9 125,120.9 125,120.9 125,112.8 125,112.8 73.2,112.8 73.2,112.8 73.2,120.9 		"/>
	</g>
	<g>
		<polygon class="st0" points="42.7,120.9 62.4,120.9 62.4,120.9 62.4,112.8 62.4,112.8 42.7,112.8 42.7,112.8 42.7,120.9 		"/>
	</g>
	<g>
		<polygon class="st0" points="136.7,69.4 185.6,69.4 185.6,69.4 185.6,61.3 185.6,61.3 136.7,61.3 136.7,61.3 136.7,69.4 		"/>
	</g>
	<g>
		<polygon class="st0" points="76.2,69.4 125,69.4 125,69.4 125,61.3 125,61.3 76.2,61.3 76.2,61.3 76.2,69.4 		"/>
	</g>
	<g>
		<polygon class="st0" points="42.7,69.4 65.4,69.4 65.4,69.4 65.4,61.3 65.4,61.3 42.7,61.3 42.7,61.3 42.7,69.4 		"/>
	</g>
</g>
</svg>
