<?xml version="1.0" encoding="utf-8"?>
<!-- Generator: Adobe Illustrator 24.3.0, SVG Export Plug-In . SVG Version: 6.00 Build 0)  -->
<svg version="1.1" id="Layer_1" xmlns="http://www.w3.org/2000/svg" xmlns:xlink="http://www.w3.org/1999/xlink" x="0px" y="0px"
	 viewBox="0 0 103 103" style="enable-background:new 0 0 103 103;" xml:space="preserve">
<style type="text/css">
	.st0{fill:#F14C44;}
</style>
<path class="st0" d="M93.7,34.4c2.1,5.3,3.3,11,3.3,17.1C97,76.6,76.6,97,51.5,97C26.4,97,6,76.6,6,51.5C6,26.4,26.4,6,51.5,6
	c9.5,0,18.3,2.9,25.6,7.9l4.3-4.3C73,3.6,62.6,0,51.5,0h0C23.1,0,0,23.1,0,51.5v0C0,79.9,23.1,103,51.5,103h0
	c28.4,0,51.5-23.1,51.5-51.5v0c0-7.7-1.7-15.1-4.8-21.6L93.7,34.4z"/>
<polygon class="st0" points="93.5,20.8 88.8,16.1 41.9,63.4 27.2,48.7 22.5,53.4 41.8,72.8 46.4,68.2 46.4,68.3 "/>
</svg>
