<?xml version="1.0" encoding="utf-8"?>
<!-- Generator: Adobe Illustrator 24.3.0, SVG Export Plug-In . SVG Version: 6.00 Build 0)  -->
<svg version="1.1" id="Fitness_icons" xmlns="http://www.w3.org/2000/svg" xmlns:xlink="http://www.w3.org/1999/xlink" x="0px"
	 y="0px" viewBox="0 0 71.7 65.6" style="enable-background:new 0 0 71.7 65.6;" xml:space="preserve">
<style type="text/css">
	.st0{fill:#F14C44;}
</style>
<g>
	<path class="st0" d="M70.2,65.6H1.5c-0.8,0-1.5-0.7-1.5-1.5V1.5C0,0.7,0.7,0,1.5,0S3,0.7,3,1.5v61.1h67.2c0.8,0,1.5,0.7,1.5,1.5
		S71,65.6,70.2,65.6z"/>
</g>
<path class="st0" d="M40.4,46.5c-0.6,0-1.1-0.3-1.4-0.9l-8.4-19l-6,10.7c-0.3,0.5-0.8,0.8-1.3,0.8h-7.6c-0.8,0-1.5-0.7-1.5-1.5
	s0.7-1.5,1.5-1.5h6.7l7.1-12.6c0.3-0.5,0.8-0.8,1.4-0.8c0.6,0,1.1,0.4,1.3,0.9l8,18.1L49,13.3c0.2-0.6,0.8-1,1.4-1
	c0.7,0,1.2,0.4,1.4,1l7.9,21.8H67c0.8,0,1.5,0.7,1.5,1.5s-0.7,1.5-1.5,1.5h-8.4c-0.6,0-1.2-0.4-1.4-1l-6.7-18.7l-8.6,27
	C41.7,46,41.1,46.4,40.4,46.5C40.5,46.5,40.4,46.5,40.4,46.5z"/>
</svg>
